<svg xmlns="http://www.w3.org/2000/svg" width="100" height="20" viewBox="0 0 100 20">
  <polygon points="10,1 12.09,7.36 19,7.36 13.45,11.64 15.54,18 10,13.73 4.46,18 6.55,11.64 1,7.36 7.91,7.36" fill="#af7e13"/>
  <polygon points="30,1 32.09,7.36 39,7.36 33.45,11.64 35.54,18 30,13.73 24.46,18 26.55,11.64 21,7.36 27.91,7.36" fill="#af7e13"/>
  <polygon points="50,1 52.09,7.36 59,7.36 53.45,11.64 55.54,18 50,13.73 44.46,18 46.55,11.64 41,7.36 47.91,7.36" fill="#af7e13"/>
  <polygon points="70,1 72.09,7.36 79,7.36 73.45,11.64 75.54,18 70,13.73 64.46,18 66.55,11.64 61,7.36 67.91,7.36" fill="#af7e13"/>
  <polygon points="90,1 92.09,7.36 99,7.36 93.45,11.64 95.54,18 90,13.73 84.46,18 86.55,11.64 81,7.36 87.91,7.36" fill="#af7e13"/>
</svg>
