<svg width="400" height="200" xmlns="http://www.w3.org/2000/svg" viewBox="0 0 400 200">
  <path d="M10,10 Q20,5 30,10 T50,10 T70,10 T90,10 T110,10 T130,10 T150,10 T170,10 T190,10 
          T210,10 T230,10 T250,10 T270,10 T290,10 T310,10 T330,10 T350,10 T370,10 T390,10
          T390,30 T390,50 T390,70 T390,90 T390,110 T390,130 T390,150 T390,170 T390,190
          T370,190 T350,190 T330,190 T310,190 T290,190 T270,190 T250,190 T230,190 T210,190 
          T190,190 T170,190 T150,190 T130,190 T110,190 T90,190 T70,190 T50,190 T30,190 
          T10,190 T10,170 T10,150 T10,130 T10,110 T10,90 T10,70 T10,50 T10,30 T10,10"
        fill="none" stroke="#af7e13" stroke-width="1" />
</svg>
